<svg xmlns="http://www.w3.org/2000/svg" xmlns:xlink="http://www.w3.org/1999/xlink" viewBox="0,0,256,256" width="100px" height="100px"><g fill="#a8518a" fill-rule="nonzero" stroke="none" stroke-width="1" stroke-linecap="butt" stroke-linejoin="miter" stroke-miterlimit="10" stroke-dasharray="" stroke-dashoffset="0" font-family="none" font-weight="none" font-size="none" text-anchor="none" style="mix-blend-mode: normal"><g transform="scale(5.12,5.12)"><path d="M14,3.99023c-5.51133,0 -10,4.48867 -10,10v22c0,5.51133 4.48867,10 10,10h22c5.51133,0 10,-4.48867 10,-10v-22c0,-5.51133 -4.48867,-10 -10,-10zM14,5.99023h22c4.43067,0 8,3.56933 8,8v22c0,4.43067 -3.56933,8 -8,8h-22c-4.43067,0 -8,-3.56933 -8,-8v-22c0,-4.43067 3.56933,-8 8,-8zM24.45313,11.17773c-2.39844,0.1577 -4.45312,1.98531 -4.45312,4.97656c0,4.158 3.26481,8.78652 9.00781,11.72852c0.305,0.156 0.67837,0.156 0.98438,0c5.743,-2.941 9.00781,-7.56952 9.00781,-11.72852c0,-4.786 -5.26048,-6.5947 -8.77148,-3.3457c-0.413,0.383 -1.04403,0.383 -1.45703,0c-1.317,-1.21837 -2.8793,-1.72548 -4.31836,-1.63086z"></path></g></g></svg>